<svg xmlns="http://www.w3.org/2000/svg" viewBox="0 0 64 64" role="img" aria-label="Welplan">
  <defs>
    <linearGradient id="bg" x1="0" y1="0" x2="1" y2="1">
      <stop offset="0" stop-color="#0f172a" />
      <stop offset="1" stop-color="#1e293b" />
    </linearGradient>
    <linearGradient id="bowl" x1="0" y1="0" x2="1" y2="1">
      <stop offset="0" stop-color="#34d399" />
      <stop offset="1" stop-color="#10b981" />
    </linearGradient>
  </defs>
  <rect width="64" height="64" rx="16" fill="url(#bg)" />
  <circle cx="22" cy="23" r="5" fill="#f59e0b" />
  <circle cx="32" cy="19" r="4" fill="#fb7185" />
  <circle cx="42" cy="24" r="5" fill="#38bdf8" />
  <path d="M17 31c2 9 8 15 15 15s13-6 15-15H17Z" fill="url(#bowl)" />
  <path d="M19 31h26" stroke="#ecfeff" stroke-width="3" stroke-linecap="round" opacity="0.9" />
  <path d="M24 13c-2 3-2 6 0 9" stroke="#e2e8f0" stroke-width="2.5" stroke-linecap="round" opacity="0.85" />
  <path d="M32 11c-2 4-2 7 0 10" stroke="#e2e8f0" stroke-width="2.5" stroke-linecap="round" opacity="0.85" />
  <path d="M40 13c-2 3-2 6 0 9" stroke="#e2e8f0" stroke-width="2.5" stroke-linecap="round" opacity="0.85" />
</svg>
