<svg xmlns="http://www.w3.org/2000/svg" viewBox="0 0 512 512" role="img" aria-label="Welplan app icon">
  <defs>
    <linearGradient id="bg" x1="0" y1="0" x2="1" y2="1">
      <stop offset="0" stop-color="#020617" />
      <stop offset="0.55" stop-color="#0f172a" />
      <stop offset="1" stop-color="#1e293b" />
    </linearGradient>
    <linearGradient id="plate" x1="0" y1="0" x2="1" y2="1">
      <stop offset="0" stop-color="#34d399" />
      <stop offset="1" stop-color="#10b981" />
    </linearGradient>
  </defs>
  <rect width="512" height="512" rx="128" fill="url(#bg)" />
  <circle cx="170" cy="174" r="38" fill="#f59e0b" />
  <circle cx="256" cy="144" r="30" fill="#fb7185" />
  <circle cx="340" cy="182" r="40" fill="#38bdf8" />
  <path d="M126 242c18 82 70 137 130 137s112-55 130-137H126Z" fill="url(#plate)" />
  <path d="M144 242h224" stroke="#ecfeff" stroke-width="26" stroke-linecap="round" opacity="0.92" />
  <path d="M193 102c-17 26-18 53-1 79" stroke="#e2e8f0" stroke-width="18" stroke-linecap="round" opacity="0.88" />
  <path d="M256 82c-18 31-18 62 0 92" stroke="#e2e8f0" stroke-width="18" stroke-linecap="round" opacity="0.88" />
  <path d="M319 102c-17 26-18 53-1 79" stroke="#e2e8f0" stroke-width="18" stroke-linecap="round" opacity="0.88" />
</svg>
