<svg xmlns="http://www.w3.org/2000/svg" viewBox="0 0 1200 630" role="img" aria-label="Welplan social preview">
  <defs>
    <linearGradient id="bg" x1="0" y1="0" x2="1" y2="1">
      <stop offset="0" stop-color="#020617" />
      <stop offset="0.55" stop-color="#0f172a" />
      <stop offset="1" stop-color="#14532d" />
    </linearGradient>
    <linearGradient id="panel" x1="0" y1="0" x2="1" y2="1">
      <stop offset="0" stop-color="#ffffff" stop-opacity="0.15" />
      <stop offset="1" stop-color="#ffffff" stop-opacity="0.06" />
    </linearGradient>
    <linearGradient id="plate" x1="0" y1="0" x2="1" y2="1">
      <stop offset="0" stop-color="#34d399" />
      <stop offset="1" stop-color="#10b981" />
    </linearGradient>
  </defs>
  <rect width="1200" height="630" fill="url(#bg)" />
  <g opacity="0.14">
    <circle cx="1070" cy="94" r="120" fill="#38bdf8" />
    <circle cx="104" cy="520" r="160" fill="#f59e0b" />
  </g>
  <rect x="72" y="72" width="1056" height="486" rx="40" fill="url(#panel)" stroke="#ffffff" stroke-opacity="0.12" />
  <g transform="translate(110 132)">
    <rect width="136" height="136" rx="34" fill="#0f172a" stroke="#ffffff" stroke-opacity="0.12" />
    <circle cx="44" cy="50" r="13" fill="#f59e0b" />
    <circle cx="68" cy="36" r="10" fill="#fb7185" />
    <circle cx="93" cy="52" r="13" fill="#38bdf8" />
    <path d="M30 74c5 22 17 39 38 39s33-17 38-39H30Z" fill="url(#plate)" />
    <path d="M37 74h62" stroke="#ecfeff" stroke-width="8" stroke-linecap="round" opacity="0.92" />
    <path d="M48 16c-5 9-5 17 0 25" stroke="#e2e8f0" stroke-width="6" stroke-linecap="round" opacity="0.88" />
    <path d="M68 10c-6 10-6 20 0 30" stroke="#e2e8f0" stroke-width="6" stroke-linecap="round" opacity="0.88" />
    <path d="M88 16c-5 9-5 17 0 25" stroke="#e2e8f0" stroke-width="6" stroke-linecap="round" opacity="0.88" />
  </g>
  <text x="278" y="180" fill="#f8fafc" font-size="78" font-weight="700" font-family="Noto Sans KR, Arial, sans-serif">Welplan</text>
  <text x="278" y="252" fill="#cbd5e1" font-size="34" font-weight="500" font-family="Noto Sans KR, Arial, sans-serif">구내식당 메뉴, 이미지, 영양 정보를 한눈에</text>
  <g transform="translate(110 334)">
    <rect width="292" height="142" rx="28" fill="#ffffff" fill-opacity="0.95" />
    <text x="28" y="48" fill="#0f172a" font-size="24" font-weight="700" font-family="Noto Sans KR, Arial, sans-serif">메뉴 갤러리</text>
    <text x="28" y="84" fill="#334155" font-size="18" font-family="Noto Sans KR, Arial, sans-serif">식단 이미지를 빠르게 훑고</text>
    <text x="28" y="112" fill="#334155" font-size="18" font-family="Noto Sans KR, Arial, sans-serif">좋아 보이는 메뉴를 바로 확인</text>
    <rect x="28" y="122" width="94" height="8" rx="4" fill="#34d399" />
  </g>
  <g transform="translate(454 334)">
    <rect width="292" height="142" rx="28" fill="#ffffff" fill-opacity="0.95" />
    <text x="28" y="48" fill="#0f172a" font-size="24" font-weight="700" font-family="Noto Sans KR, Arial, sans-serif">P-Score 비교</text>
    <text x="28" y="84" fill="#334155" font-size="18" font-family="Noto Sans KR, Arial, sans-serif">영양 정보를 기준으로</text>
    <text x="28" y="112" fill="#334155" font-size="18" font-family="Noto Sans KR, Arial, sans-serif">메뉴를 더 쉽게 고를 수 있게</text>
    <rect x="28" y="122" width="124" height="8" rx="4" fill="#38bdf8" />
  </g>
  <g transform="translate(798 334)">
    <rect width="292" height="142" rx="28" fill="#ffffff" fill-opacity="0.95" />
    <text x="28" y="48" fill="#0f172a" font-size="24" font-weight="700" font-family="Noto Sans KR, Arial, sans-serif">날짜별 메뉴</text>
    <text x="28" y="84" fill="#334155" font-size="18" font-family="Noto Sans KR, Arial, sans-serif">테이크 인과 테이크 아웃을</text>
    <text x="28" y="112" fill="#334155" font-size="18" font-family="Noto Sans KR, Arial, sans-serif">날짜와 식사 시간별로 탐색</text>
    <rect x="28" y="122" width="104" height="8" rx="4" fill="#f59e0b" />
  </g>
</svg>
